<svg id="Layer_1" data-name="Layer 1" xmlns="http://www.w3.org/2000/svg" xmlns:xlink="http://www.w3.org/1999/xlink" width="50" height="50" viewBox="0 0 50 50"><defs><style>.cls-1{fill:#517f73;}.cls-2{fill:#e2a770;}.cls-14,.cls-3,.cls-35,.cls-36,.cls-37,.cls-8{fill:#bb8b5d;}.cls-4{fill:#004f39;}.cls-5{fill:#fff;}.cls-26,.cls-42,.cls-6{fill:#331a06;}.cls-7{fill:url(#linear-gradient);}.cls-35,.cls-8{opacity:0.25;}.cls-11,.cls-9{opacity:0.35;}.cls-9{fill:url(#radial-gradient);}.cls-10{fill:#5b3217;}.cls-11{fill:url(#radial-gradient-2);}.cls-12{fill:#aa7950;}.cls-13{fill:#cc966a;}.cls-14,.cls-37{opacity:0.5;}.cls-15{fill:#926d46;}.cls-16{fill:url(#linear-gradient-2);}.cls-17{fill:url(#linear-gradient-3);}.cls-18{fill:url(#linear-gradient-4);}.cls-19{fill:#ddd;}.cls-20{fill:#301c06;}.cls-21{fill:url(#radial-gradient-3);}.cls-22{fill:url(#linear-gradient-5);}.cls-23{fill:url(#linear-gradient-6);}.cls-24{fill:url(#linear-gradient-7);}.cls-25{fill:url(#radial-gradient-4);}.cls-26,.cls-42{opacity:0.75;}.cls-27{fill:#961b27;}.cls-28{fill:url(#linear-gradient-8);}.cls-29{fill:url(#linear-gradient-9);}.cls-30{fill:#f46e6e;}.cls-31{fill:#ed8888;}.cls-32{fill:url(#linear-gradient-10);}.cls-33{fill:url(#linear-gradient-11);}.cls-34{fill:url(#linear-gradient-12);}.cls-35,.cls-36,.cls-37,.cls-42{isolation:isolate;}.cls-38{fill:url(#linear-gradient-13);}.cls-39{fill:url(#linear-gradient-14);}.cls-40{fill:url(#linear-gradient-15);}.cls-41{fill:#683a0c;}.cls-43{fill:url(#linear-gradient-16);}.cls-44{fill:url(#linear-gradient-17);}.cls-45{fill:url(#linear-gradient-18);}.cls-46{fill:url(#linear-gradient-19);}.cls-47{fill:url(#linear-gradient-20);}.cls-48{fill:url(#linear-gradient-21);}.cls-49{fill:url(#linear-gradient-22);}</style><linearGradient id="linear-gradient" x1="66.8606" y1="-255.2268" x2="81.4928" y2="-225.182" gradientTransform="matrix(0.9943, -0.1072, 0.0882, 0.8176, -37.4347, 221.2811)" gradientUnits="userSpaceOnUse"><stop offset="0" stop-color="#6b3329"/><stop offset="0.4208" stop-color="#5d2c22"/><stop offset="1" stop-color="#421f16"/></linearGradient><radialGradient id="radial-gradient" cx="-567.3583" cy="763.9962" r="0.1757" gradientTransform="matrix(-22.9172, 4.2831, -4.4529, -23.8103, -9564.3296, 20645.5596)" gradientUnits="userSpaceOnUse"><stop offset="0" stop-color="#cc3861"/><stop offset="0.0473" stop-color="#ce4262"/><stop offset="0.2379" stop-color="#d56667"/><stop offset="0.4296" stop-color="#db836b"/><stop offset="0.6208" stop-color="#df976e"/><stop offset="0.8113" stop-color="#e1a36f"/><stop offset="1" stop-color="#e2a770"/></radialGradient><radialGradient id="radial-gradient-2" cx="-554.5687" cy="762.9351" r="0.176" gradientTransform="matrix(21.4103, 5.7842, 5.6237, -20.8107, 7599.0966, 19109.1755)" xlink:href="#radial-gradient"/><linearGradient id="linear-gradient-2" x1="-403.6401" y1="838.3267" x2="-403.469" y2="838.3267" gradientTransform="translate(2911.5229 -7690.1488) rotate(-5.2438) scale(8.8466)" gradientUnits="userSpaceOnUse"><stop offset="0" stop-color="#fff"/><stop offset="0.4667" stop-color="#fdfcfc"/><stop offset="0.7734" stop-color="#f6f4f4"/><stop offset="1" stop-color="#ece7e7"/></linearGradient><linearGradient id="linear-gradient-3" x1="-685.6893" y1="757.9854" x2="-685.4966" y2="757.9854" gradientTransform="translate(-6559.0755 11022.5769) rotate(168.7913) scale(12.5467)" xlink:href="#linear-gradient-2"/><linearGradient id="linear-gradient-4" x1="130.0445" y1="-93.3604" x2="125.7642" y2="-94.6089" gradientTransform="translate(-104.3268 103.181) rotate(5.498)" gradientUnits="userSpaceOnUse"><stop offset="0" stop-color="#9e6639"/><stop offset="1" stop-color="#3f1e00"/></linearGradient><radialGradient id="radial-gradient-3" cx="-1408.9668" cy="-103.2589" r="1.3413" gradientTransform="matrix(-1.09, -0.1316, -0.1294, 1.072, -1516.8109, -52.9354)" gradientUnits="userSpaceOnUse"><stop offset="0" stop-color="#2a3a3b"/><stop offset="1" stop-color="#1c2727"/></radialGradient><linearGradient id="linear-gradient-5" x1="-589.563" y1="812.2538" x2="-589.392" y2="812.2538" gradientTransform="matrix(-8.6914, -1.6494, -1.6494, 8.6914, -3765.2744, -8011.2369)" xlink:href="#linear-gradient-2"/><linearGradient id="linear-gradient-6" x1="-557.2842" y1="789.8238" x2="-557.0915" y2="789.8238" gradientTransform="matrix(12.017, 3.6076, 3.6076, -12.017, 3868.7859, 11522.7618)" xlink:href="#linear-gradient-2"/><linearGradient id="linear-gradient-7" x1="-575.0442" y1="789.7622" x2="-574.8662" y2="789.7622" gradientTransform="translate(-7947.0723 18337.9868) rotate(167.454) scale(20.4472)" xlink:href="#linear-gradient-4"/><radialGradient id="radial-gradient-4" cx="101.0509" cy="7.7693" r="2.4176" gradientTransform="matrix(1.0976, -0.0265, 0.026, 1.0795, -89.8177, 15.8432)" xlink:href="#radial-gradient-3"/><linearGradient id="linear-gradient-8" x1="-574.6688" y1="811.8471" x2="-574.4804" y2="811.8471" gradientTransform="matrix(-33.0527, 0.3623, 0.3704, 33.109, -19265.8979, -26640.4557)" gradientUnits="userSpaceOnUse"><stop offset="0" stop-color="#e8d8d7"/><stop offset="0.1366" stop-color="#f0e5e4"/><stop offset="0.3932" stop-color="#fbf8f8"/><stop offset="0.5685" stop-color="#fff"/><stop offset="1" stop-color="#e8d2d1"/></linearGradient><linearGradient id="linear-gradient-9" x1="-567.3673" y1="791.1226" x2="-567.202" y2="791.1226" gradientTransform="matrix(59.2738, 1.7008, 2.4089, -55.5887, 31745.2931, 44972.4195)" gradientUnits="userSpaceOnUse"><stop offset="0" stop-color="#e8d8d7"/><stop offset="0.041" stop-color="#ebdedd"/><stop offset="0.2105" stop-color="#f6f0f0"/><stop offset="0.3845" stop-color="#fdfbfb"/><stop offset="0.5685" stop-color="#fff"/><stop offset="0.6904" stop-color="#fbf8f8"/><stop offset="0.872" stop-color="#f1e4e3"/><stop offset="1" stop-color="#e8d2d1"/></linearGradient><linearGradient id="linear-gradient-10" x1="25.8893" y1="31.763" x2="28.0218" y2="31.763" gradientUnits="userSpaceOnUse"><stop offset="0" stop-color="#f98b87"/><stop offset="0.0051" stop-color="#f98b87"/><stop offset="0.0906" stop-color="#fc938d"/><stop offset="0.2568" stop-color="#fe9b94"/><stop offset="0.5279" stop-color="#ff9e96"/><stop offset="0.7894" stop-color="#fe9c94"/><stop offset="0.91" stop-color="#fc948f"/><stop offset="1" stop-color="#f88885"/></linearGradient><linearGradient id="linear-gradient-11" x1="30.0866" y1="81.8283" x2="37.6748" y2="81.8491" gradientTransform="translate(-4.4393 -53.1991) rotate(2.2967)" gradientUnits="userSpaceOnUse"><stop offset="0" stop-color="#e8d8d7"/><stop offset="0.0466" stop-color="#ebdcdb"/><stop offset="0.3062" stop-color="#f7efef"/><stop offset="0.4835" stop-color="#fbf6f6"/><stop offset="1" stop-color="#e8d2d1"/></linearGradient><linearGradient id="linear-gradient-12" x1="21.2648" y1="499.5647" x2="35.9789" y2="469.3518" gradientTransform="matrix(0.9943, -0.1072, -0.0882, -0.8176, 29.4351, 416.1148)" xlink:href="#linear-gradient"/><linearGradient id="linear-gradient-13" x1="-1206.3208" y1="-44.1875" x2="-1206.1482" y2="-44.1875" gradientTransform="translate(-10633.4648 -728.7038) rotate(-178.0705) scale(8.8465)" xlink:href="#linear-gradient-2"/><linearGradient id="linear-gradient-14" x1="-1052.065" y1="16.3389" x2="-1051.8715" y2="16.3389" gradientTransform="translate(13124.6136 1631.0637) rotate(7.8942) scale(12.5468)" xlink:href="#linear-gradient-2"/><linearGradient id="linear-gradient-15" x1="-1144.9108" y1="25.9205" x2="-1144.7318" y2="25.9205" gradientTransform="matrix(-19.0424, 7.4481, 7.4481, 19.0424, -21972.6441, 8054.7933)" gradientUnits="userSpaceOnUse"><stop offset="0" stop-color="#9e6639"/><stop offset="1" stop-color="#643a16"/></linearGradient><linearGradient id="linear-gradient-16" x1="-1137.226" y1="-30.4799" x2="-1137.0362" y2="-30.4799" gradientTransform="matrix(-33.0527, 0.3623, -0.3704, -33.109, -37570.4361, -565.9699)" gradientUnits="userSpaceOnUse"><stop offset="0" stop-color="#e8d8d7"/><stop offset="0.1366" stop-color="#f0e5e4"/><stop offset="0.3932" stop-color="#fbf8f8"/><stop offset="0.5685" stop-color="#fff"/><stop offset="1" stop-color="#e8d2d1"/></linearGradient><linearGradient id="linear-gradient-17" x1="-1104.038" y1="9.2064" x2="-1103.8716" y2="9.2064" gradientTransform="matrix(59.2738, 1.7008, -2.4089, 55.5887, 65483.964, 1396.3231)" gradientUnits="userSpaceOnUse"><stop offset="0" stop-color="#e8d8d7"/><stop offset="0.041" stop-color="#ebdedd"/><stop offset="0.2105" stop-color="#f6f0f0"/><stop offset="0.3845" stop-color="#fdfbfb"/><stop offset="0.5685" stop-color="#fff"/><stop offset="0.6904" stop-color="#fbf8f8"/><stop offset="0.872" stop-color="#f1e4e3"/><stop offset="1" stop-color="#e8d2d1"/></linearGradient><linearGradient id="linear-gradient-18" x1="25.9922" y1="365.9563" x2="28.1365" y2="365.9563" gradientTransform="matrix(1, 0, 0, -1, 0, 398.1166)" xlink:href="#linear-gradient-10"/><linearGradient id="linear-gradient-19" x1="45.5907" y1="338.1139" x2="53.2213" y2="338.0932" gradientTransform="matrix(0.9992, 0.0401, 0.0401, -0.9992, -36.6769, 366.1674)" gradientUnits="userSpaceOnUse"><stop offset="0" stop-color="#e8d8d7"/><stop offset="0.0466" stop-color="#ebdcdb"/><stop offset="0.3062" stop-color="#f7efef"/><stop offset="0.4835" stop-color="#fbf6f6"/><stop offset="1" stop-color="#e8d2d1"/></linearGradient><linearGradient id="linear-gradient-20" x1="-893.9004" y1="-99.3118" x2="-893.7285" y2="-99.3118" gradientTransform="matrix(8.8462, -0.0881, -0.0881, -8.8462, 7932.1866, -935.8998)" xlink:href="#linear-gradient-2"/><linearGradient id="linear-gradient-21" x1="-1267.068" y1="77.8216" x2="-1266.8742" y2="77.8216" gradientTransform="matrix(-12.4652, 1.4281, 1.4281, 12.4652, -15874.0906, 860.6195)" xlink:href="#linear-gradient-2"/><linearGradient id="linear-gradient-22" x1="159.7014" y1="505.4641" x2="155.3972" y2="506.7197" gradientTransform="matrix(0.9843, 0.1766, 0.1766, -0.9843, -212.4907, 492.0012)" xlink:href="#linear-gradient-15"/></defs><title>final_fran</title><path class="cls-1" d="M39.4538,50.0669H45.313c3.2666,0,4.315.1048,4.315.1048s-2.1416-7.52-7.2885-8.7272C42.34,41.4445,36.8147,48.25,39.4538,50.0669Z"/><path class="cls-2" d="M11.9673,49.9466l.0279.0949H37.9164l.1044-.3714,2.3955-7.2337s-2.1786-.997-5.4326-2.1068a7.7508,7.7508,0,0,1-4.9771-3.4358c-.6892-.9792.0458-5.157.1149-5.4095H20.4143s.5273,4.0768,0,5.4009c-.5253,1.3254-2.64,2.8523-5.66,3.8416-1.49.4877-4.412,1.7336-4.412,1.7336l1.736,7.5052C12.0416,49.9579,12.0026,49.953,11.9673,49.9466Z"/><path class="cls-1" d="M4.9584,50.0415h5.8583c2.5988-1.8045-2.97-8.4922-2.97-8.4922C2.9228,43.1481.5078,50.0415.5078,50.0415Z"/><path class="cls-3" d="M20.5266,33.7877a5.8589,5.8589,0,0,1,.0573,2.33C22.7334,38.183,30.72,37.68,30.72,37.68c-1.198-.94-1.076-1.7413-.8771-5.012C29.8431,32.6678,20.0567,31.95,20.5266,33.7877Z"/><path class="cls-4" d="M5.7355,50.0415H44.0969c-.27-3.9454,1.56-6.8553-.5842-8.2016L33.0754,38.2991a1.1116,1.1116,0,0,1-.1653.5218c-1.4457,2.8092-4.02,5.2557-7.45,4.93-3.0613-.2906-6.9959-3.1167-8.3873-4.6712a.7842.7842,0,0,1-.2186-.5961L6.9607,41.84C4.8162,43.1868,5.9425,46.0933,5.7355,50.0415Z"/><path class="cls-5" d="M32.7154,37.3884a5.3853,5.3853,0,0,0-2.8388-.7334A5.2027,5.2027,0,0,0,31.32,38.379c1.2072,1.72-5,4.2505-5.9191,4.68-.8766-.4478-7.06-3.1733-6.1458-4.5835a4.1992,4.1992,0,0,0,1.25-1.8883,4.3007,4.3007,0,0,0-2.683.5759,3.6477,3.6477,0,0,0-1.6347,2.4517c0,.91,3.5119,6.7246,5.4838,7,1.6447.2293,3.2317-2.3417,3.7145-3.2038.4369.8748,1.9008,3.5184,3.55,3.2888,1.9719-.2746,5.4829-5.99,5.4829-6.8995S33.509,37.9991,32.7154,37.3884Z"/><path class="cls-6" d="M39.23,22.5545c.833-2.7388,3.82-15.8738-7.0674-18.5279-4.8367-1.18-12.9957,29.6048-.7709,27.2077C33.4247,30.8358,37.6442,28.482,39.23,22.5545Z"/><path class="cls-7" d="M16.2924,15.9619s-3.6892,2.5762-4.4294,5.3091c.0294.137,1.5487,5.65,5.9085,7.4843,5.14,2.1625,7.2981-.2529,12.2542-2.0943C30.0257,26.661,18.5317,18.2317,16.2924,15.9619Z"/><path class="cls-2" d="M28.7349,7.8723c-6.9067-1.2641-12.3508,3.88-13.7013,11.2426-1.1957,6.52-.4441,10.0119,3.2267,13.0295,2.3423,1.9253,4.6873,4.272,7.51,4.3708,3.8565.135,5.5335-2.0259,6.4993-2.7623,2.7616-2.1072,6.4717-3.885,5.527-12.8725C37.0921,14.1759,34.6181,7.9907,28.7349,7.8723Z"/><path class="cls-8" d="M26.34,32.9826c-1.0547.0041-1.9516.3139-2.0035.6933s.7611.6869,1.8156.6844,1.9506-.313,2.0031-.6933C28.2058,33.2862,27.3928,32.9794,26.34,32.9826Z"/><path class="cls-3" d="M37.8339,24.2362S37.6471,9.6231,29.3124,7.394c0,0-7.7485-1.522-11.1964,3.1727-3.7336,5.0839-3.1386,10.8357-3.6805,14.8231a8.9066,8.9066,0,0,0,1.1723-3.6052c.7094-3.97,1.8742-6.2616,3.8459-8.2333s3.6841-6.0708,9.4436-5.5519c1.0414-.0466,3.5489,1.4177,5.2406,4.3066C36.9834,17.1673,36.3172,19.1033,37.8339,24.2362Z"/><path class="cls-9" d="M30.0818,26.3714a5.8028,5.8028,0,0,0,3.3238,4.3459c2.2387.9249,3.9256-1.9376,4.3736-5.5083.2464-1.9643-2.59-3.4654-4.4119-3.1245S29.719,24.4218,30.0818,26.3714Z"/><path class="cls-6" d="M28.6735,7.3248c3.87-.4412,4.7455-2.2119,3.5067-3.29C27.633.0761,15.8105.2386,11.577,12.153a20.4579,20.4579,0,0,0,.4059,10.689,19.7842,19.7842,0,0,1,2.5024-4.0965c1.41-2.0457,3.2561-4.831,3.2561-4.831C20.9666,10.3043,23.0859,6.4427,28.6735,7.3248Z"/><path class="cls-10" d="M28.67,7.3248a11.1343,11.1343,0,0,1,2.0273-.0565c1.1916.1334,3.8475,1.7111,5.8322,6.1746,1.1547,2.5934,1.4727,5.3851,2.579,8.7491-1.9172,3.15-1.4944-1.8434-1.9614-3.9708A20.0652,20.0652,0,0,0,34.19,11.2164,7.8887,7.8887,0,0,0,28.67,7.3248Z"/><path class="cls-11" d="M21.7251,25.7788c-.448,1.6562-1.7068,4.6047-3.3979,4.3247-2.1828-.3607-3.8068-1.5811-3.8228-5.6415-.0065-1.72,2.6345-2.9149,4.2878-2.4679S22.1726,24.12,21.7251,25.7788Z"/><path class="cls-10" d="M29.103,7.3094S24.4412,5.373,19.5575,12.15c-2.5425,3.5283-3.9434,4.41-4.9552,9.8715-.2108.172-1.8086.1511-1.84-.294-.3914-5.5822,3.0152-6.3779,4.7714-9.2662C21.4774,5.9757,27.0182,5.5718,29.103,7.3094Z"/><path class="cls-10" d="M11.6266,21.0811a18.3169,18.3169,0,0,0,2.1714,7.57c-3.0786-2.8365-5.967-5.7595-1.9717-11.7785,2.026-3.0523,3.8915-3.9953,5.5-7.3161,1.1485-2.371,2.335-5.0331,7.3162-5.0331a4.8018,4.8018,0,0,1,4.2554,2.2853A6.6059,6.6059,0,0,0,24.02,6.287c-2.9576.7784-4.2042,2.5346-5.9153,5.3964C16.6812,14.0641,11.5165,18.6481,11.6266,21.0811Z"/><path class="cls-6" d="M15.3261,32.9575a9.4782,9.4782,0,0,0-.3367-3.0069,10.2521,10.2521,0,0,0-1.6513-2.8462,7.69,7.69,0,0,1-1.9269-4.1614,7.5039,7.5039,0,0,1,.7611-4.3932,16.7418,16.7418,0,0,1,2.75-3.2658,25.5529,25.5529,0,0,1,2.5245-2.1362,27.7049,27.7049,0,0,0-2.17,2.7815,10.16,10.16,0,0,0-1.962,6.5235,8.0907,8.0907,0,0,0,1.072,3.6369,10.4146,10.4146,0,0,1,1.3671,3.4279A7.0915,7.0915,0,0,1,15.3261,32.9575Z"/><path class="cls-3" d="M37.9379,22.6094c-.0675.3532-.1036.6937-.1619,1.026a9.3173,9.3173,0,0,1-.5959,4.4154c2.0094-.5883,3.5718-6.32,1.5339-6.3371C38.3587,21.71,37.9379,22.6094,37.9379,22.6094Z"/><path class="cls-12" d="M38.0629,26.5468a2.3425,2.3425,0,0,0,.3089-1.82c-.5072-2.74,1.3044-3.1313.9657-1.1856,0,0-.2868-.8681-.5068-.5751-.2708.36.3237.4775.08,1.9469A4.3412,4.3412,0,0,1,38.0629,26.5468Z"/><path class="cls-6" d="M36.9755,17.4915s.5649,5.4629.8552,6.7635l.2864-1.9858S37.3,18.1705,36.9755,17.4915Z"/><path class="cls-10" d="M39.5144,19.4715a15.563,15.563,0,0,1-1.1077-2.3866c-.6211-1.5148-1.3329-3.683-2.4112-5.8918C34.968,8.9869,33.62,7.3226,32.1008,6.937a5.24,5.24,0,0,0-2.6846-.0406,5.1187,5.1187,0,0,1,2.6919-.6206,5.243,5.243,0,0,1,2.9624,1.0727,8.34,8.34,0,0,1,2.3668,2.9508,19.6739,19.6739,0,0,1,1.7333,6.37C39.3681,18.3675,39.4986,19.456,39.5144,19.4715Z"/><path class="cls-3" d="M14.6332,22.0078a17.235,17.235,0,0,0,.6207,5.5439c-2.0234-.8342-3.4037-6.52-1.3657-6.4668C14.2443,21.0947,14.6332,22.0078,14.6332,22.0078Z"/><path class="cls-12" d="M14.6912,25.9853a2.2579,2.2579,0,0,1-.4489-1.8392c.3663-2.9017-1.5982-3.0557-1.11-1.092,0,0,.2509-.9365.5055-.6641.3129.335-.3144.5378.04,2.0233A4.1071,4.1071,0,0,0,14.6912,25.9853Z"/><path class="cls-6" d="M15.186,19.4081a29.88,29.88,0,0,1-.528,4.1268l-.1773-1.8478S15.0077,19.8849,15.186,19.4081Z"/><path class="cls-13" d="M15.6226,21.7646S13.4055,27.81,17.7069,31.28c2.368,1.91,3.8231,3.4481,4.205,3.7857a54.3835,54.3835,0,0,1-4.9661-3.2668A7.6009,7.6009,0,0,1,15.6226,21.7646Z"/><path class="cls-2" d="M32.773,17.1351a4.9637,4.9637,0,0,1,3.6743,1.0371c1.1628.8215-.09,4.0331-.09,4.0331S37.5285,17.7612,32.773,17.1351Z"/><path class="cls-14" d="M23.559,26.8787s-.1409-.3958.4657-.3329c.438.0452.7546.9928,2.321,1.0076,1.6737.0151,1.9341-.8171,2.3642-.823a.3037.3037,0,0,1,.336.3581s.8072-.3806.5218-.758c-.52-.6863-.7378.6754-3.2315.5462-2.7085-.1414-2.9668-1.4777-3.3678-.6412C22.8043,26.5785,23.0886,26.6925,23.559,26.8787Z"/><path class="cls-15" d="M27.48,27.397s1.3614-1.21,1.6406-.9033C29.9515,27.4087,27.48,27.397,27.48,27.397Z"/><path class="cls-15" d="M25.1158,27.2561s-1.2053-1.1081-1.53-.8521C22.6626,27.13,25.1158,27.2561,25.1158,27.2561Z"/><path class="cls-10" d="M32.2732,3.9469S40.4684,5.24,40.2341,15.72c0,0-1.2869-10.8609-9.7951-10.9946-5.9323-3.304-16.0571,1-18.85,7.3958A15.0124,15.0124,0,0,1,21.32,2.1135,11.7456,11.7456,0,0,1,32.2732,3.9469Z"/><path class="cls-3" d="M37.8258,24.2594a3.213,3.213,0,0,0-1.4482-2.0054c1.9758,3.4147.1155,7.8165-2.0322,9.5444-2.37,1.9074-3.136,2.7348-3.9726,3.4873,0,0,3.73-2.4483,4.6991-3.1846A7.5509,7.5509,0,0,0,37.8258,24.2594Z"/><path class="cls-14" d="M32.8388,19.1029c-3.1652-.2421-3.8645,1.824-4.0041,3.3295.2558.07.5258.1321,1.027.3119a7.7486,7.7486,0,0,0,2.6263.6618c.9131.034,2.9784-.3394,3.0969-2.3022C35.678,19.5513,33.6621,19.209,32.8388,19.1029Z"/><path class="cls-16" d="M33.6038,21.8859a1.9048,1.9048,0,0,0-1.1477-1.9731,5.8538,5.8538,0,0,1,3.03,1.6718,3.4973,3.4973,0,0,1-2.7792,1.61A1.6451,1.6451,0,0,0,33.6038,21.8859Z"/><path class="cls-17" d="M31.0318,20.16a2.4031,2.4031,0,0,0-.8423,1.3954,1.5174,1.5174,0,0,0,.5464,1.35,11.7656,11.7656,0,0,0-1.7409-.5833A5.8721,5.8721,0,0,1,31.0318,20.16Z"/><path class="cls-18" d="M30.227,21.3432a1.9237,1.9237,0,0,0-.0375.2117,1.4519,1.4519,0,0,0,.5464,1.35,6.0046,6.0046,0,0,0,2.1495.2948,1.5955,1.5955,0,0,0,.9392-1.2638,1.8082,1.8082,0,0,0-.1377-.91A3.8478,3.8478,0,0,0,30.227,21.3432Z"/><path class="cls-19" d="M33.013,20.3175a3.6776,3.6776,0,0,1,2.1483,1.302l-.2568.4237a5.0665,5.0665,0,0,0-1.1285-.723A1.7153,1.7153,0,0,0,33.013,20.3175Z"/><path class="cls-19" d="M30.2291,21.3875a5.924,5.924,0,0,0-1.2341.9343,4.9913,4.9913,0,0,1,1.9263-1.9438A1.6911,1.6911,0,0,0,30.2291,21.3875Z"/><path class="cls-20" d="M31.94,20.9168a3.9754,3.9754,0,0,0-1.711.4707,1.6911,1.6911,0,0,1,.6922-1.0095,1.8926,1.8926,0,0,1,.4837-.1409,4.3863,4.3863,0,0,1,1.608.08,1.7153,1.7153,0,0,1,.763,1.0027A3.9064,3.9064,0,0,0,31.94,20.9168Z"/><path class="cls-21" d="M30.7338,21.4553a1.2739,1.2739,0,1,0,1.411-1.0682A1.2516,1.2516,0,0,0,30.7338,21.4553Z"/><path class="cls-5" d="M32.3318,21.5129a.3123.3123,0,0,1-.428.1309.328.328,0,0,1-.1172-.4415.3118.3118,0,0,1,.4279-.13A.3275.3275,0,0,1,32.3318,21.5129Z"/><path class="cls-5" d="M33.4135,22.137a.4346.4346,0,0,1-.5882.1631.4252.4252,0,0,1-.169-.581.4324.4324,0,0,1,.5873-.1626A.4248.4248,0,0,1,33.4135,22.137Z"/><path d="M35.4772,21.8629a1.1351,1.1351,0,0,0,.0353-.1254c.8932-.2649.7984-1.4741.8085-1.5187a2.39,2.39,0,0,1-2.0254-.1536c-2.9854-1.3651-4.6842.23-5.3006,2.2566,0,0,1.3117-1.83,2.9267-1.8458A4.4753,4.4753,0,0,1,35.06,21.6665a3.908,3.908,0,0,1-2.4,1.5507,4.187,4.187,0,0,0,2.2181-.7119c.8153-.5357,1.1637-.3218,1.1674-.3287A.6045.6045,0,0,0,35.4772,21.8629Z"/><path class="cls-14" d="M19.8843,18.4975c2.9921.1557,3.7734,1.7673,3.743,3.7389-.2337.0416-.5362.0807-1.0521.2117a7.7628,7.7628,0,0,1-2.678.4074c-.9128-.0541-2.9615-.6742-2.78-2.1586A2.5733,2.5733,0,0,1,19.8843,18.4975Z"/><path class="cls-22" d="M18.9326,21.235a1.9039,1.9039,0,0,1,1.3313-1.8539,5.8512,5.8512,0,0,0-3.1753,1.3733,3.4977,3.4977,0,0,0,2.6121,1.8693A1.6431,1.6431,0,0,1,18.9326,21.235Z"/><path class="cls-23" d="M21.6579,19.7629a2.4081,2.4081,0,0,1,.7047,1.47,1.5206,1.5206,0,0,1-.6729,1.2921,11.6917,11.6917,0,0,1,1.7879-.4139A5.87,5.87,0,0,0,21.6579,19.7629Z"/><path class="cls-24" d="M22.3455,21.0187a1.7843,1.7843,0,0,1,.0171.2139,1.4527,1.4527,0,0,1-.6729,1.2921,6.012,6.012,0,0,1-2.1684.0874,1.5988,1.5988,0,0,1-.8137-1.3484,1.8094,1.8094,0,0,1,.2245-.8932A3.8492,3.8492,0,0,1,22.3455,21.0187Z"/><path class="cls-19" d="M19.6705,19.7306a3.67,3.67,0,0,0-2.2625,1.09l.2152.4461a5.0777,5.0777,0,0,1,1.192-.6115A1.7155,1.7155,0,0,1,19.6705,19.7306Z"/><path class="cls-19" d="M22.34,21.0625a5.9108,5.9108,0,0,1,1.1381,1.0483,4.9905,4.9905,0,0,0-1.73-2.12A1.6958,1.6958,0,0,1,22.34,21.0625Z"/><path class="cls-20" d="M20.6822,20.4305a3.9753,3.9753,0,0,1,1.6573.632,1.6958,1.6958,0,0,0-.5924-1.0713,1.8972,1.8972,0,0,0-.4675-.1869,4.3993,4.3993,0,0,0-1.6091-.0737,1.7155,1.7155,0,0,0-.8553.9247A3.9083,3.9083,0,0,1,20.6822,20.4305Z"/><path class="cls-25" d="M21.83,21.0818a1.2743,1.2743,0,1,1-1.3019-1.1989A1.2514,1.2514,0,0,1,21.83,21.0818Z"/><path class="cls-5" d="M20.9112,21.0191a.3122.3122,0,0,1-.4281.13.3283.3283,0,0,1-.1172-.4411.3121.3121,0,0,1,.4288-.1305A.3283.3283,0,0,1,20.9112,21.0191Z"/><path class="cls-5" d="M21.9928,21.6428a.4337.4337,0,0,1-.588.1634.4256.4256,0,0,1-.1692-.5811.4333.4333,0,0,1,.588-.1629A.4251.4251,0,0,1,21.9928,21.6428Z"/><path d="M17.07,21.0327c-.0153-.0651-.0213-.11-.0243-.1281-.8626-.3495-.6525-1.5441-.6586-1.59a2.4151,2.4151,0,0,0,2.0415.0423c3.1025-1.0729,4.63.6775,5.0489,2.7537,0,0-1.1194-1.9469-2.725-2.1175a4.5043,4.5043,0,0,0-3.2492.8841,3.9143,3.9143,0,0,0,2.24,1.7734,4.1877,4.1877,0,0,1-2.1394-.9219c-.76-.6109-1.1272-.4315-1.13-.4385A.6037.6037,0,0,1,17.07,21.0327Z"/><path class="cls-26" d="M30.6676,17.1742c-.8478.3472-1.4968,1.4075-.766,1.2073a33.5013,33.5013,0,0,1,4.018-1.0543,6.4118,6.4118,0,0,1,2.5485.8018,7.46,7.46,0,0,0-2.5339-1.4844A8.7012,8.7012,0,0,0,30.6676,17.1742Z"/><path class="cls-26" d="M22.4608,16.7511c.8273.3931,1.2805,1.4095.5618,1.17A41.0912,41.0912,0,0,0,19.07,16.6252a6.1087,6.1087,0,0,0-2.59.6815,7.3992,7.3992,0,0,1,2.6121-1.364A9.33,9.33,0,0,1,22.4608,16.7511Z"/><path class="cls-3" d="M20.8077,29.1932c-.2776-.1051-.4261-.3364-.3-.5476.1107-.1891,1.2636.6933,1.6939,1.3665A5.2135,5.2135,0,0,0,20.8077,29.1932Z"/><path class="cls-3" d="M31.3177,29.503c.279-.1039.4272-.3348.3023-.5463-.11-.1892-1.2646.6887-1.6969,1.36A5.2034,5.2034,0,0,1,31.3177,29.503Z"/><path class="cls-3" d="M23.2441,31.5a3.365,3.365,0,0,0,5.6148.1852S25.7415,32.9385,23.2441,31.5Z"/><path class="cls-27" d="M25.7867,29.6489a22.3069,22.3069,0,0,1-4.9877-.7744l-.0008.0061a.75.75,0,0,1,.045.0711,5.5325,5.5325,0,0,1,1.2261.6668c.3387.2642.6163,1.971,4.0423,2.0621a4.9622,4.9622,0,0,0,4.1773-1.7859,2.9632,2.9632,0,0,1,.9712-.6467c.008-.031.023-.0442.0326-.0765A16.4915,16.4915,0,0,1,25.7867,29.6489Z"/><path class="cls-28" d="M28.86,30.0669a17.4174,17.4174,0,0,1-5.49,0c-.5413-.2641-.5138.4372-.5138.4372a3.5245,3.5245,0,0,0,3.101,1.1441,5.1752,5.1752,0,0,0,3.2706-.9936C29.3186,30.4305,29.1306,30.0166,28.86,30.0669Z"/><path class="cls-29" d="M29.7383,29.3861a6.9857,6.9857,0,0,1-2.1161.3824,17.9627,17.9627,0,0,1-3.445-.1246,8.49,8.49,0,0,1-1.7423-.3669,1.9132,1.9132,0,0,1,.2177.3907c.1071.2732.6522,1.2059,3.41,1.2753,2.0751.0524,3.1953-.6453,3.36-1.0877C29.5215,29.5893,29.7188,29.4768,29.7383,29.3861Z"/><path class="cls-30" d="M26.3,31.5622c-4.2112-.1625-2.6824-1.8279-5.4569-2.6105A5.195,5.195,0,0,1,22.18,30.1986c.7789.9709,1.4243,2.4789,3.785,2.5479a5.1505,5.1505,0,0,0,4.0726-2.273,6.9465,6.9465,0,0,1,1.232-1.2251C28.96,29.7875,29.6514,31.5826,26.3,31.5622Z"/><path class="cls-31" d="M23.8231,31.08a6.4016,6.4016,0,0,1-1.3045-1.1786c.1446.2125.9731,2.4775,3.3462,2.5148,2.7441.0431,3.3081-1.7789,3.818-2.3077a4.1906,4.1906,0,0,1-1.57,1.0905,8.005,8.005,0,0,1-2.1648.3147A5.759,5.759,0,0,1,23.8231,31.08Z"/><path class="cls-32" d="M28.0193,31.4712c.0318.0976-.2431.4073-.8074.5427a1.56,1.56,0,0,1-1.3218-.1375c-.0332-.098.9227-.129,1.2034-.2145S27.987,31.374,28.0193,31.4712Z"/><path class="cls-27" d="M20.8827,29.1166a4.1284,4.1284,0,0,1,.9486.2249,9.4417,9.4417,0,0,0-1.1794-.5977C20.6,28.7653,20.6405,28.995,20.8827,29.1166Z"/><path class="cls-27" d="M31.2662,29.4155a3.2991,3.2991,0,0,0-.9343.1823,5.8532,5.8532,0,0,1,1.1852-.5418C31.563,29.09,31.5142,29.3076,31.2662,29.4155Z"/><path class="cls-33" d="M22.4913,29.3454l.1667.3346a8.2445,8.2445,0,0,0,3.618.77,7.676,7.676,0,0,0,3.1347-.5631l.1515-.3209Z"/><path class="cls-30" d="M27.6507,29.2949a9.256,9.256,0,0,0-1.501.0194,15.351,15.351,0,0,0-1.739-.1634,11.1721,11.1721,0,0,1-3.3858-.2489,8.297,8.297,0,0,0,2.9926,1.0331,9.8133,9.8133,0,0,0,2.1317.3428,12.694,12.694,0,0,0,2.3642-.2144,8.7368,8.7368,0,0,0,2.57-.862A14.9278,14.9278,0,0,1,27.6507,29.2949Z"/><path class="cls-31" d="M23.4233,29.3811a6.5286,6.5286,0,0,1,1.4581-.1384c.2019.0077.8681.1505,1.11.1607a9.6975,9.6975,0,0,0,1.1862-.0456,5.51,5.51,0,0,1,1.6711.2522,5.9347,5.9347,0,0,1-2.6993.48C24.6461,30.0587,23.346,29.6331,23.4233,29.3811Z"/><path class="cls-6" d="M39.407,22.6449C40.2449,19.891,43.25,6.6823,32.3,4.0133c-4.8636-1.1868-13.0681,29.7705-.7752,27.36A11.5292,11.5292,0,0,0,39.407,22.6449Z"/><path class="cls-34" d="M16.3412,16.017a12.757,12.757,0,0,0-4.4539,5.3389,12.2258,12.2258,0,0,0,5.9416,7.5259c5.168,2.1744,7.3389-.2528,12.3228-2.1061C30.1517,26.7742,18.5935,18.2981,16.3412,16.017Z"/><path class="cls-2" d="M28.8536,7.8807a12.2337,12.2337,0,0,0-13.7046,10.56q-.0481.3714-.0735.7453c-1.2024,6.5566-.4465,10.068,3.245,13.1026a14.2221,14.2221,0,0,0,7.5522,4.3953,8.5369,8.5369,0,0,0,6.5358-2.7777,11.3241,11.3241,0,0,0,5.5584-12.9447C37.2589,14.2193,34.77,8,28.8536,7.8807Z"/><path class="cls-35" d="M26.4451,33.3765c-1.0619.004-1.9625.3155-2.0151.6968s.7656.6908,1.826.6882,1.9615-.3145,2.0141-.6968S27.504,33.373,26.4451,33.3765Z"/><path class="cls-3" d="M38.0033,24.3358S37.8152,9.641,29.4341,7.4c0,0-7.7919-1.5307-11.2588,3.19a27.913,27.913,0,0,0-3.701,14.9057,8.9534,8.9534,0,0,0,1.1787-3.6251A14.1435,14.1435,0,0,1,19.52,13.59c1.9828-1.9828,3.7046-6.105,9.4966-5.5832a8.1448,8.1448,0,0,1,5.27,4.3311A38.9892,38.9892,0,0,1,38.0033,24.3358Z"/><path class="cls-6" d="M28.7919,7.575c3.8937-.444,4.7721-2.225,3.5261-3.3091A13.6249,13.6249,0,0,0,11.6,12.43a20.576,20.576,0,0,0,.4081,10.7491,19.9026,19.9026,0,0,1,2.5168-4.12c1.4158-2.0571,3.2742-4.8581,3.2742-4.8581C21.042,10.5711,23.1729,6.6881,28.7919,7.575Z"/><path class="cls-10" d="M28.7884,7.575a11.2206,11.2206,0,0,1,2.0389-.0571c1.1984.1345,3.8689,1.7193,5.8658,6.21,1.163,2.6078,1.4811,5.4153,2.5936,8.7988-1.9281,3.1675-1.5029-1.8538-1.9721-3.9949a20.177,20.177,0,0,0-2.9739-7.044A7.9336,7.9336,0,0,0,28.7884,7.575Z"/><path class="cls-10" d="M29.2238,7.5593s-4.6881-1.9473-9.5992,4.8681a18.6323,18.6323,0,0,0-4.9829,9.9269c-.2119.173-1.82.1517-1.85-.2958-.3939-5.613,3.0341-6.4135,4.7979-9.318C21.5552,6.2183,27.1273,5.8122,29.2238,7.5593Z"/><path class="cls-10" d="M11.65,21.4082A18.4166,18.4166,0,0,0,13.8331,29.02c-3.0957-2.8525-6-5.792-1.9827-11.8444a56.7811,56.7811,0,0,0,5.5305-7.357A7.0677,7.0677,0,0,1,24.738,4.7574a4.8288,4.8288,0,0,1,4.2795,2.2983,6.6385,6.6385,0,0,0-4.9051-.5244c-2.9738.7828-4.2274,2.5486-5.9482,5.4264C16.7321,14.352,11.5389,18.9618,11.65,21.4082Z"/><path class="cls-6" d="M15.37,33.3537A9.5334,9.5334,0,0,0,15.031,30.33,10.3139,10.3139,0,0,0,13.37,27.4677a7.7312,7.7312,0,0,1-1.9377-4.1845,7.5451,7.5451,0,0,1,.7656-4.418,16.82,16.82,0,0,1,2.766-3.2839,25.6441,25.6441,0,0,1,2.5385-2.1481,27.7839,27.7839,0,0,0-2.182,2.7969,10.2174,10.2174,0,0,0-1.9721,6.56,8.1318,8.1318,0,0,0,1.0781,3.657,10.4747,10.4747,0,0,1,1.3749,3.4472A7.14,7.14,0,0,1,15.37,33.3537Z"/><path class="cls-3" d="M38.108,22.945c-.0678.3539-.1042.6978-.1629,1.032a9.3673,9.3673,0,0,1-.5992,4.44c2.0227-.5916,3.59-6.3558,1.5428-6.3714C38.5312,22.0408,38.108,22.945,38.108,22.945Z"/><path class="cls-12" d="M38.2339,26.9044a2.3551,2.3551,0,0,0,.3105-1.83c-.51-2.7554,1.3117-3.1488.9709-1.1923,0,0-.2883-.8728-.5093-.5785-.2725.362.3252.48.08,1.9579A4.3647,4.3647,0,0,1,38.2339,26.9044Z"/><path class="cls-6" d="M37.14,17.7987s.5684,5.4931.86,6.8013l.2882-1.9969S37.4668,18.4814,37.14,17.7987Z"/><path class="cls-10" d="M39.6933,19.79a15.641,15.641,0,0,1-1.1125-2.4c-.6245-1.5231-1.34-3.7035-2.4247-5.925a7.1942,7.1942,0,0,0-3.9165-4.28A5.2671,5.2671,0,0,0,29.54,7.1442a5.1451,5.1451,0,0,1,2.7069-.624,5.2728,5.2728,0,0,1,2.9789,1.0786,8.3893,8.3893,0,0,1,2.38,2.9673A19.796,19.796,0,0,1,39.3479,16.97C39.5461,18.68,39.6776,19.7739,39.6933,19.79Z"/><path class="cls-3" d="M14.673,22.34a17.3284,17.3284,0,0,0,.624,5.575c-2.0348-.8389-3.4229-6.5565-1.3734-6.5029C14.2816,21.42,14.673,22.34,14.673,22.34Z"/><path class="cls-12" d="M14.7312,26.34a2.2713,2.2713,0,0,1-.4516-1.85c.3686-2.9188-1.607-3.0705-1.116-1.0983,0,0,.2528-.9421.5082-.668.315.3368-.3161.5405.04,2.0348A4.1324,4.1324,0,0,0,14.7312,26.34Z"/><path class="cls-6" d="M15.2288,19.7258a30.0236,30.0236,0,0,1-.531,4.15l-.1785-1.8584S15.0492,20.2062,15.2288,19.7258Z"/><path class="cls-13" d="M15.6667,22.0954a8.9818,8.9818,0,0,0,2.096,9.5684c2.3812,1.9215,3.9332,3.3375,4.3185,3.6768a54.7865,54.7865,0,0,1-5.0836-3.157A7.6438,7.6438,0,0,1,15.6667,22.0954Z"/><path class="cls-36" d="M23.6487,27.2381s-.1416-.3979.4683-.3347c.44.0455.7585.9987,2.3342,1.0113,1.6829.0152,1.9448-.8217,2.3766-.8278a.3034.3034,0,0,1,.3378.3606s.8091-.3828.5249-.7626c-.5228-.69-.7418.6791-3.2494.5492-2.7236-.1421-2.9835-1.4857-3.3881-.6448C22.89,26.9362,23.1754,27.051,23.6487,27.2381Z"/><path class="cls-15" d="M27.5915,27.76s1.3693-1.2167,1.65-.91C30.0784,27.7711,27.5915,27.76,27.5915,27.76Z"/><path class="cls-15" d="M25.2143,27.6179s-1.2136-1.1125-1.5393-.86C22.7461,27.491,25.2143,27.6179,25.2143,27.6179Z"/><path class="cls-10" d="M32.4116,4.1764a10.5392,10.5392,0,0,1,8.0053,11.84s-1.294-10.9215-9.8495-11.056a15.4194,15.4194,0,0,0-18.9562,7.4369A15.0949,15.0949,0,0,1,21.397,2.3347,11.8112,11.8112,0,0,1,32.4116,4.1764Z"/><path class="cls-13" d="M37.9952,24.3606a3.2322,3.2322,0,0,0-1.4563-2.0166,8.0863,8.0863,0,0,1-2.0435,9.5967c-2.3832,1.918-3.1533,2.75-3.9948,3.5068,0,0,3.7511-2.4621,4.7255-3.2024A7.5942,7.5942,0,0,0,37.9952,24.3606Z"/><path class="cls-37" d="M19.6193,18.8535c2.9973-.3062,4.02,1.1752,4.296,3.1384-.2259.0775-.5207.1631-1.0127.3725a7.8192,7.8192,0,0,1-2.5986.818c-.9153.0867-3.0466-.2137-3.0955-1.7167A2.5875,2.5875,0,0,1,19.6193,18.8535Z"/><path class="cls-38" d="M19.0958,21.7205a1.9144,1.9144,0,0,1,1.0373-2.0455c-1.1456.3073-2.7228.6855-2.9435,1.854a3.5177,3.5177,0,0,0,2.8836,1.4553A1.6526,1.6526,0,0,1,19.0958,21.7205Z"/><path class="cls-39" d="M21.5749,19.8382a2.4206,2.4206,0,0,1,.926,1.3516,1.53,1.53,0,0,1-.4694,1.388,11.7106,11.7106,0,0,1,1.7126-.6868A5.9,5.9,0,0,0,21.5749,19.8382Z"/><path class="cls-40" d="M22.454,20.98a1.86,1.86,0,0,1,.05.21,1.4614,1.4614,0,0,1-.4694,1.3879,6.048,6.048,0,0,1-2.1418.4212,1.61,1.61,0,0,1-1.0163-1.2148,1.82,1.82,0,0,1,.0857-.9221A3.8714,3.8714,0,0,1,22.454,20.98Z"/><path class="cls-19" d="M19.597,20.1117c-.84.2179-1.8313.1844-2.3349.8915l.5369.9507a5.1011,5.1011,0,0,1,1.09-.7913A1.7264,1.7264,0,0,1,19.597,20.1117Z"/><path class="cls-19" d="M22.4547,21.024a5.9663,5.9663,0,0,1,1.2924.8665,5.0169,5.0169,0,0,0-2.0461-1.84A1.7038,1.7038,0,0,1,22.4547,21.024Z"/><path class="cls-41" d="M20.71,20.6514a3.9985,3.9985,0,0,1,1.7464.3723,1.7038,1.7038,0,0,0-.7537-.973,1.9023,1.9023,0,0,0-.4936-.1139,4.4356,4.4356,0,0,0-1.61.1746,1.7266,1.7266,0,0,0-.707,1.0507A3.9353,3.9353,0,0,1,20.71,20.6514Z"/><path d="M21.9515,21.122a1.2814,1.2814,0,1,1-1.5227-.9824l.0442-.0087a1.2581,1.2581,0,0,1,1.4783.99Z"/><path class="cls-5" d="M21.0284,21.2012a.3135.3135,0,0,1-.3965.1984l-.0087-.003a.33.33,0,0,1-.1844-.42.3136.3136,0,0,1,.3962-.199l.01.0035A.33.33,0,0,1,21.0284,21.2012Z"/><path class="cls-5" d="M22.1993,21.6542a.4359.4359,0,0,1-.5589.253.4283.4283,0,0,1-.2595-.5473l.0015-.0043a.4369.4369,0,0,1,.5595-.2526.4278.4278,0,0,1,.259.5468Z"/><path d="M17.2138,21.8067,17.17,21.683c-.9117-.2168-.8876-1.4339-.9-1.4786a2.4269,2.4269,0,0,0,2.0353-.2721,3.4821,3.4821,0,0,1,5.4414,1.9582s-1.4109-1.7625-3.0362-1.6839c-1.17.0424-3.4592-.0694-3.0923,1.3792a3.9368,3.9368,0,0,0,2.5026,1.4172,4.2156,4.2156,0,0,1-2.2684-.5867c-.8508-.49-1.1884-.2553-1.1895-.2623A.6068.6068,0,0,1,17.2138,21.8067Z"/><path class="cls-42" d="M22.5438,17.0539c.8319.3954,1.2875,1.4158.5649,1.1762a41.3175,41.3175,0,0,0-3.9746-1.3027,6.1488,6.1488,0,0,0-2.6042.6852,7.4375,7.4375,0,0,1,2.63-1.3714A9.38,9.38,0,0,1,22.5438,17.0539Z"/><path class="cls-3" d="M20.8822,29.5657c-.28-.1056-.4288-.3383-.3034-.5506.1117-.19,1.2707.6973,1.7036,1.3739A5.2524,5.2524,0,0,0,20.8822,29.5657Z"/><path class="cls-3" d="M31.4508,29.8772c.2806-.1046.43-.3367.3034-.5491-.1108-.19-1.2718.6922-1.7062,1.3678A5.23,5.23,0,0,1,31.4508,29.8772Z"/><path class="cls-3" d="M23.3322,31.8873a3.3834,3.3834,0,0,0,5.6458.1861A7.2227,7.2227,0,0,1,23.3322,31.8873Z"/><path class="cls-27" d="M25.8889,30.0239a22.405,22.405,0,0,1-5.0138-.7788v.0061l.045.0718a5.5423,5.5423,0,0,1,1.2329.6705c.3408.2655.62,1.9818,4.0651,2.0733a4.9906,4.9906,0,0,0,4.1981-1.7977,2.9816,2.9816,0,0,1,.9769-.6482l.0324-.0769A16.5748,16.5748,0,0,1,25.8889,30.0239Z"/><path class="cls-43" d="M28.979,30.4446a17.5188,17.5188,0,0,1-5.5209,0c-.5441-.2655-.5168.44-.5168.44a3.5446,3.5446,0,0,0,3.1185,1.15,5.2082,5.2082,0,0,0,3.2869-.9992C29.4407,30.81,29.2516,30.3935,28.979,30.4446Z"/><path class="cls-44" d="M29.8625,29.76a7.0167,7.0167,0,0,1-2.1279.3843,18.0582,18.0582,0,0,1-3.4644-.1254,8.499,8.499,0,0,1-1.7516-.3686,1.9307,1.9307,0,0,1,.2184.3929c.1077.2746.6574,1.2136,3.43,1.2824,2.0864.0506,3.213-.6493,3.3784-1.0938C29.6445,29.9657,29.8427,29.8509,29.8625,29.76Z"/><path class="cls-30" d="M26.4052,31.948c-4.2351-.1618-2.6983-1.8382-5.4876-2.625a5.21,5.21,0,0,1,1.3441,1.2536c.7833.9764,1.4325,2.493,3.8062,2.5622a5.179,5.179,0,0,0,4.0959-2.2856,6.995,6.995,0,0,1,1.2389-1.2318C29.08,30.1634,29.775,31.9687,26.4052,31.948Z"/><path class="cls-31" d="M23.9142,31.4635a6.45,6.45,0,0,1-1.3117-1.1853,3.9442,3.9442,0,0,0,3.3647,2.5284,4.1111,4.1111,0,0,0,3.84-2.3205,4.2162,4.2162,0,0,1-1.5792,1.0978,8.0569,8.0569,0,0,1-2.1744.316A5.7894,5.7894,0,0,1,23.9142,31.4635Z"/><path class="cls-45" d="M28.1341,31.8564c.0318.0981-.2448.41-.8122.5457a1.5678,1.5678,0,0,1-1.3289-.1381c-.0333-.0986.9279-.13,1.21-.2159S28.1012,31.7588,28.1341,31.8564Z"/><path class="cls-27" d="M20.9575,29.4889a4.14,4.14,0,0,1,.9537.226,9.5083,9.5083,0,0,0-1.1878-.6012C20.6728,29.1354,20.7138,29.3665,20.9575,29.4889Z"/><path class="cls-27" d="M31.3992,29.7892a3.3256,3.3256,0,0,0-.9395.1836,5.9006,5.9006,0,0,1,1.1918-.5451C31.6965,29.46,31.6485,29.6805,31.3992,29.7892Z"/><path class="cls-46" d="M22.5752,29.719l.1674.3362a8.292,8.292,0,0,0,3.6408.7742,7.7227,7.7227,0,0,0,3.1524-.5663l.1517-.3227Z"/><path class="cls-30" d="M27.7634,29.6679a9.2887,9.2887,0,0,0-1.5094.02,15.3385,15.3385,0,0,0-1.7487-.1643A11.2316,11.2316,0,0,1,21.1,29.27a8.3459,8.3459,0,0,0,3.01,1.0387,9.861,9.861,0,0,0,2.1436.3448,12.7665,12.7665,0,0,0,2.3766-.2154,8.7642,8.7642,0,0,0,2.5845-.8672A14.9759,14.9759,0,0,1,27.7634,29.6679Z"/><path class="cls-31" d="M23.5122,29.7549a6.5912,6.5912,0,0,1,1.4665-.14c.2022.0081.8727.1517,1.116.1618a9.6967,9.6967,0,0,0,1.1929-.046,5.5378,5.5378,0,0,1,1.68.2528,5.9738,5.9738,0,0,1-2.7144.483C24.742,30.436,23.4343,30.0082,23.5122,29.7549Z"/><path class="cls-37" d="M33.0322,18.9706A3.3373,3.3373,0,0,0,28.7466,21.98c.25.091.5159.1756,1.0036.3971a7.7873,7.7873,0,0,0,2.5765.88c.9119.1091,3.0129-.0957,3.2922-2.0536C35.84,19.6567,33.8473,19.1463,33.0322,18.9706Z"/><path class="cls-47" d="M33.57,21.8243a1.9155,1.9155,0,0,0-.989-2.0712c1.1383.3343,2.5566.4116,2.9,1.9235a3.5171,3.5171,0,0,1-2.9174,1.385A1.6551,1.6551,0,0,0,33.57,21.8243Z"/><path class="cls-48" d="M31.1336,19.8834a2.4139,2.4139,0,0,0-.9585,1.3295,1.5242,1.5242,0,0,0,.4367,1.398,11.8156,11.8156,0,0,0-1.697-.7273A5.9051,5.9051,0,0,1,31.1336,19.8834Z"/><path class="cls-49" d="M30.2277,21.0036a1.9842,1.9842,0,0,0-.0546.2092,1.4592,1.4592,0,0,0,.4367,1.3979,6.04,6.04,0,0,0,2.13.472,1.606,1.606,0,0,0,1.045-1.19,1.82,1.82,0,0,0-.0635-.9235A3.87,3.87,0,0,0,30.2277,21.0036Z"/><path class="cls-19" d="M33.1064,20.2044c.8347.2382,1.7284-.0057,2.2156.7128l-.4615,1.1714a5.0831,5.0831,0,0,0-1.0717-.8167A1.7266,1.7266,0,0,0,33.1064,20.2044Z"/><path class="cls-19" d="M30.2281,21.0483a5.9841,5.9841,0,0,0-1.3133.8353,5.0209,5.0209,0,0,1,2.09-1.79A1.7016,1.7016,0,0,0,30.2281,21.0483Z"/><path class="cls-41" d="M31.9818,20.7168a4.0044,4.0044,0,0,0-1.7522.3316,1.7011,1.7011,0,0,1,.7767-.9547,1.8965,1.8965,0,0,1,.4964-.1015,4.3991,4.3991,0,0,1,1.6062.2124,1.7262,1.7262,0,0,1,.6824,1.0675A3.9257,3.9257,0,0,0,31.9818,20.7168Z"/><path d="M30.7286,21.1577a1.2808,1.2808,0,1,0,1.5452-.9452l-.0435-.01A1.2586,1.2586,0,0,0,30.7286,21.1577Z"/><path class="cls-5" d="M32.3254,21.3481a.3141.3141,0,0,1-.4326.1005l-.007-.0045a.33.33,0,0,1-.0813-.4521.3135.3135,0,0,1,.4319-.1l.0077.0049A.33.33,0,0,1,32.3254,21.3481Z"/><path class="cls-5" d="M33.3585,22.0607a.4369.4369,0,0,1-.603.1151.4277.4277,0,0,1-.1243-.5921l.0025-.0039a.4354.4354,0,0,1,.6005-.1153.4273.4273,0,0,1,.1279.5906Z"/><path d="M35.4493,21.9551l.0456-.1231c.9168-.192.9211-1.4118.9348-1.4559a2.4038,2.4038,0,0,1-2.0177-.3171,3.4921,3.4921,0,0,0-5.4974,1.8272,4.5,4.5,0,0,1,3.0844-1.61c1.1658.07,3.6271-.0717,3.0484,1.45a3.9306,3.9306,0,0,1-2.5326,1.3577,4.2068,4.2068,0,0,0,2.2814-.532c.8614-.47,1.1927-.2272,1.1972-.2334A.6067.6067,0,0,0,35.4493,21.9551Z"/><path class="cls-42" d="M30.6751,17.0048c-.8521.3489-1.5049,1.4159-.77,1.2136a33.6992,33.6992,0,0,1,4.04-1.0619,6.4578,6.4578,0,0,1,2.5632.806A7.5,7.5,0,0,0,33.96,16.47,8.7443,8.7443,0,0,0,30.6751,17.0048Z"/><path class="cls-36" d="M26.5144,24.1505c1.0022.0106,2.3923.577,2.1976.8338-.3539.4683-.53-.3539-2.2037-.3721-1.85-.0208-2.0227,1.0078-2.2973.4374C24.0993,24.8159,25.4464,24.14,26.5144,24.1505Z"/><g id="_6" data-name="6"><path d="M37.0174,21.5428h-.0919a4.3546,4.3546,0,0,0-.2987-1.1966,4.2386,4.2386,0,0,0-2.3442-2.3473A4.409,4.409,0,0,0,28.62,20.297a4.1806,4.1806,0,0,0-.3279,1.2068,6.2407,6.2407,0,0,0-1.9325-.33v-.0009l-.0375,0-.0377,0v.0009a6.2411,6.2411,0,0,0-1.9324.33,4.1742,4.1742,0,0,0-.3279-1.2068,4.409,4.409,0,0,0-5.6628-2.2981,4.24,4.24,0,0,0-2.3443,2.3473,4.3616,4.3616,0,0,0-.2986,1.1966h-.0918c-.3221,0-.5831.1957-.5831.4371s.261.4372.5831.4372h.0943a4.35,4.35,0,0,0,.3262,1.2535,4.2775,4.2775,0,0,0,2.3756,2.3082,4.383,4.383,0,0,0,1.6539.3049,4.4387,4.4387,0,0,0,1.6439-.3413,4.3576,4.3576,0,0,0,.7435-.3995A4.2517,4.2517,0,0,0,24.3805,22.03a5.7093,5.7093,0,0,1,3.8827,0,4.2478,4.2478,0,0,0,.32,1.5786A4.2885,4.2885,0,0,0,30.18,25.5429a4.3622,4.3622,0,0,0,.7436.3995,4.4394,4.4394,0,0,0,1.6438.3413,4.3835,4.3835,0,0,0,1.654-.3049,4.2765,4.2765,0,0,0,2.3757-2.3082,4.35,4.35,0,0,0,.3261-1.2535h.0944c.322,0,.5829-.1955.5829-.4372S37.3394,21.5428,37.0174,21.5428ZM23.9612,23.5683a4.18,4.18,0,0,1-2.2583,2.3329,4.1658,4.1658,0,0,1-3.2532.0124,4.2554,4.2554,0,0,1-2.2908-2.29,4.2209,4.2209,0,0,1-.2967-1.1283.0709.0709,0,0,0,.0478.0233c.0923,0,.1669-.2362.1669-.5275s-.0746-.5277-.1669-.5277a.0707.0707,0,0,0-.0476.0222,4.2146,4.2146,0,0,1,.2778-1.0888,4.2959,4.2959,0,0,1,2.2541-2.3192,4.1585,4.1585,0,0,1,5.5547,2.2514,4.4368,4.4368,0,0,1,.2888,1.12.0824.0824,0,0,0-.0468-.0175c-.0892,0-.1615.168-.1615.3754s.0723.3755.1615.3755a.0984.0984,0,0,0,.0739-.0417,4.4082,4.4082,0,0,1-.0712.633A4.2409,4.2409,0,0,1,23.9612,23.5683Zm12.5239.055a4.2575,4.2575,0,0,1-2.291,2.29,4.166,4.166,0,0,1-3.2533-.0124,4.207,4.207,0,0,1-2.2583-2.3329,4.2714,4.2714,0,0,1-.2326-.7952,4.4657,4.4657,0,0,1-.0711-.633.0988.0988,0,0,0,.0741.0417c.089,0,.1614-.168.1614-.3755s-.0724-.3754-.1614-.3754a.0833.0833,0,0,0-.047.0175,4.441,4.441,0,0,1,.2888-1.12,4.2437,4.2437,0,0,1,.9118-1.386,4.1583,4.1583,0,0,1,4.6431-.8654,4.2965,4.2965,0,0,1,2.2539,2.3192,4.2267,4.2267,0,0,1,.2778,1.0888.0708.0708,0,0,0-.0478-.0222c-.0921,0-.1666.2362-.1666.5277s.0745.5275.1666.5275a.0707.0707,0,0,0,.048-.0233A4.2316,4.2316,0,0,1,36.4851,23.6233Z"/><path d="M32.6073,26.408h-.0394a4.55,4.55,0,0,1-1.6954-.3489,4.3728,4.3728,0,0,1-.7618-.41,4.1893,4.1893,0,0,1-.6732-.55A4.3093,4.3093,0,0,1,28.14,22.12a6.4827,6.4827,0,0,0-1.8183-.3047,6.5577,6.5577,0,0,0-1.8183.3047,4.3218,4.3218,0,0,1-1.2974,2.9782,4.1945,4.1945,0,0,1-.6733.55,4.3728,4.3728,0,0,1-.7618.41,4.55,4.55,0,0,1-1.6954.3489h-.0394a4.5372,4.5372,0,0,1-1.6561-.3121A4.3683,4.3683,0,0,1,15.9326,23.72a4.6435,4.6435,0,0,1-.3244-1.177.5745.5745,0,1,1-.0049-1.1254,5.0823,5.0823,0,0,1,.2949-1.1181,4.3917,4.3917,0,0,1,2.413-2.4179,4.5114,4.5114,0,0,1,3.3959.01,4.4638,4.4638,0,0,1,2.4277,2.3564,4.17,4.17,0,0,1,.3194,1.0886,6.3014,6.3014,0,0,1,1.7-.2851v-.0024l.3342-.0025v.0049a6.3014,6.3014,0,0,1,1.7.2851,4.2146,4.2146,0,0,1,.3194-1.091,4.5275,4.5275,0,0,1,5.8236-2.3614,4.377,4.377,0,0,1,2.413,2.4154,5.0823,5.0823,0,0,1,.2949,1.1181.5745.5745,0,1,1-.0049,1.1254,4.8422,4.8422,0,0,1-.32,1.177,4.3969,4.3969,0,0,1-2.4523,2.3761A4.5372,4.5372,0,0,1,32.6073,26.408ZM28.5135,22.3a3.816,3.816,0,0,0,.059.4521,4.4381,4.4381,0,0,0,.2261.7691,4.0749,4.0749,0,0,0,.8649,1.3491,3.9351,3.9351,0,0,0,.6192.5258,4.3124,4.3124,0,0,0,.7077.3907,4.0358,4.0358,0,0,0,1.5775.3268h.0344a4.0671,4.0671,0,0,0,1.5432-.3145,4.1532,4.1532,0,0,0,1.3318-.8944,4.0515,4.0515,0,0,0,.8895-1.3294h0a3.7807,3.7807,0,0,0,.27-.9583c-.1425-.086-.1966-.3637-.1966-.6266,0-.2605.0541-.5381.1966-.6241a3.8784,3.8784,0,0,0-.2506-.9215A4.156,4.156,0,0,0,34.2,18.1935a4.099,4.099,0,0,0-1.5726-.3514h-.0786a4.0583,4.0583,0,0,0-2.8553,1.1893,4.11,4.11,0,0,0-.88,1.3441,4.1968,4.1968,0,0,0-.2654.9534.5267.5267,0,0,1,.1917.4767C28.74,22.0685,28.6511,22.2553,28.5135,22.3Zm-12.5072.317a3.7848,3.7848,0,0,0,.27.9583,4.0515,4.0515,0,0,0,.89,1.3294,4.1532,4.1532,0,0,0,1.3318.8944,4.0675,4.0675,0,0,0,1.5432.3145h.0344a4.01,4.01,0,0,0,1.5775-.3268,4.57,4.57,0,0,0,.7126-.3907,3.8189,3.8189,0,0,0,.6094-.5234,4.0449,4.0449,0,0,0,.87-1.3515h0a3.9775,3.9775,0,0,0,.2261-.7691A3.816,3.816,0,0,0,24.13,22.3c-.1376-.0442-.2261-.231-.2261-.4939a.5355.5355,0,0,1,.1917-.4767,4.0468,4.0468,0,0,0-.2654-.9534,4.021,4.021,0,0,0-2.2262-2.241,4.16,4.16,0,0,0-1.5088-.2924h-.0786a4.099,4.099,0,0,0-1.5726.3514,4.1554,4.1554,0,0,0-2.1869,2.2508,3.8785,3.8785,0,0,0-.2507.9215c.1425.086.1966.3636.1966.6241C16.2029,22.2528,16.1488,22.5305,16.0063,22.6165Zm20.7389-.9878a1.1291,1.1291,0,0,0-.0491.3612,1.0928,1.0928,0,0,0,.054.3735l.0541-.0369.0049-.0344h.0491l.0639-.0466v.0466h.0934c.2506,0,.4571-.1425.4571-.312s-.2065-.3121-.4571-.3121H36.927l.02.1646Zm-20.9109.6806.059.0492a.9868.9868,0,0,0,.054-.3686,1.1291,1.1291,0,0,0-.0491-.3612l-.2015.2039.02-.1646h-.0885c-.2506,0-.457.1425-.457.3121s.2064.312.457.312h.0835l-.01-.0933Zm8.3545-.7371a1.0989,1.0989,0,0,0-.0294.2334.66.66,0,0,0,.0344.2212l.1965-.2212v.0885a6.64,6.64,0,0,1,1.9314-.3293,6.68,6.68,0,0,1,1.9265.3268v-.1523l.2015.2825a.6892.6892,0,0,0-.005-.4447l-.0393.0319-.0049.0664-.054-.02-.1033.0811.0148-.113-.01-.0025a6.0094,6.0094,0,0,0-1.8872-.3219h-.0786a6.0094,6.0094,0,0,0-1.8872.3219l-.01.0025.0148.1228-.1082-.0884-.0491.0172-.0049-.0639Z"/></g></svg>