<?xml version="1.0" encoding="utf-8"?>
<!-- Generator: Adobe Illustrator 22.0.1, SVG Export Plug-In . SVG Version: 6.00 Build 0)  -->
<svg version="1.1" id="Layer_1" xmlns="http://www.w3.org/2000/svg" xmlns:xlink="http://www.w3.org/1999/xlink" x="0px" y="0px"
	 viewBox="0 0 400 400" style="enable-background:new 0 0 400 400;" xml:space="preserve">
<style type="text/css">
	.st0{fill:#004F39;}
</style>
<g>
	<path class="st0" d="M49.3,388.5c3.3,1,6.8,1.5,10.3,1.5h294.5c5.8,0,11.3-2.3,15.5-6.4c4.1-4.1,6.4-9.6,6.4-15.5V153.6
		c0-5.8-2.3-11.3-6.4-15.5c-4.1-4.1-9.6-6.4-15.5-6.4h-6.4V94.3c0-5.8-2.3-11.3-6.4-15.5c-4.1-4.1-9.6-6.4-15.5-6.4h-39.7l-8.7-16
		c-4.6-8.5-13.5-13.8-23.1-13.8c-4.4,0-8.7,1.1-12.5,3.2l-19.1,10.4l-48.4-40.1c-4.7-3.9-10.7-6.1-16.8-6.1
		c-7.9,0-15.2,3.5-20.3,9.5l-43.9,53H59.6C40,72.5,24.1,88.4,24.1,108v246.5C24.1,370.3,34.2,383.9,49.3,388.5z M325.8,84.2
		c2.7,0,5.3,1,7.2,3c1.9,1.9,3,4.5,3,7.2v37.4h-17.7l-25.8-47.5H325.8z M247.4,56.2c2.2-1.2,4.5-1.8,6.9-1.8
		c5.4,0,10.3,2.9,12.8,7.6l10.4,19.1c0,0,0,0,0,0l27.3,50.3l0.2,0.3H108L247.4,56.2z M100.6,82.1C100.6,82.1,100.6,82.1,100.6,82.1
		L146.3,27c2.8-3.3,6.9-5.3,11.2-5.3c3.4,0,6.7,1.2,9.3,3.4l44.8,37.1l-107,58l-21.2,11.5H59.6c-0.1,0-0.1,0-0.2,0l9-10.9
		L100.6,82.1z M59.6,84.2h24l-36.5,44c-0.1-0.1-0.2-0.1-0.2-0.2c-0.8-0.5-1.5-1-2.3-1.6c0,0,0,0,0,0c-0.7-0.6-1.4-1.2-2-1.8
		c-0.1-0.1-0.2-0.2-0.3-0.3c-0.6-0.6-1.2-1.3-1.7-2c-0.1-0.1-0.2-0.3-0.3-0.4c-0.5-0.7-1-1.4-1.4-2.2c0-0.1-0.1-0.2-0.1-0.3
		c-0.4-0.7-0.8-1.5-1.1-2.3c0-0.1-0.1-0.2-0.1-0.3c-0.3-0.8-0.6-1.7-0.8-2.5c0-0.2-0.1-0.3-0.1-0.5c-0.2-0.8-0.4-1.7-0.5-2.6
		c0-0.2,0-0.3,0-0.5c-0.1-0.9-0.2-1.9-0.2-2.8C35.8,94.9,46.5,84.2,59.6,84.2z M35.8,134.4c0.2,0.2,0.4,0.3,0.6,0.5
		c0.5,0.4,0.9,0.8,1.4,1.2c0.3,0.2,0.6,0.5,0.9,0.7c0.5,0.4,1,0.7,1.5,1c0.3,0.2,0.6,0.4,0.9,0.6c0.6,0.3,1.2,0.7,1.8,1
		c0.3,0.2,0.6,0.3,0.8,0.5c0.9,0.4,1.8,0.9,2.7,1.2c4.2,1.7,8.6,2.5,13.1,2.5h25.3h229.9h27h12.2c2.7,0,5.3,1.1,7.2,3
		c1.9,1.9,3,4.5,3,7.2v214.5c0,2.7-1.1,5.3-3,7.2c-1.9,1.9-4.5,3-7.2,3H59.6c-2.3,0-4.7-0.3-6.9-1c-10.1-3.1-16.9-12.2-16.9-22.8
		V134.4z"/>
	<path class="st0" d="M61.7,357.5h9.4c1.9,0,3.5-1.6,3.5-3.5c0-2-1.6-3.5-3.5-3.5h-9.4c-1.9,0-3.5,1.6-3.5,3.5
		C58.2,355.9,59.8,357.5,61.7,357.5z"/>
	<path class="st0" d="M98.9,357.5h18.5c2,0,3.5-1.6,3.5-3.5c0-2-1.6-3.5-3.5-3.5H98.9c-1.9,0-3.5,1.6-3.5,3.5
		C95.4,355.9,96.9,357.5,98.9,357.5z"/>
	<path class="st0" d="M98.9,171.3h18.5c1.9,0,3.5-1.6,3.5-3.5c0-1.9-1.6-3.5-3.5-3.5H98.9c-2,0-3.5,1.6-3.5,3.5
		C95.4,169.7,97,171.3,98.9,171.3z"/>
	<path class="st0" d="M341.9,248.1c-1.9,0-3.5,1.6-3.5,3.5v18.5c0,1.9,1.6,3.5,3.5,3.5c2,0,3.5-1.6,3.5-3.5v-18.5
		C345.5,249.7,343.9,248.1,341.9,248.1z"/>
	<path class="st0" d="M341.9,201.8c-1.9,0-3.5,1.6-3.5,3.5v18.5c0,1.9,1.6,3.5,3.5,3.5c2,0,3.5-1.6,3.5-3.5v-18.5
		C345.5,203.4,343.9,201.8,341.9,201.8z"/>
	<path class="st0" d="M145.2,357.5h18.5c2,0,3.5-1.6,3.5-3.5c0-2-1.6-3.5-3.5-3.5h-18.5c-1.9,0-3.5,1.6-3.5,3.5
		C141.7,355.9,143.2,357.5,145.2,357.5z"/>
	<path class="st0" d="M330.4,171.3h5c0.8,0,1.6,0.3,2.2,0.9c0.6,0.6,0.9,1.4,0.9,2.2v3.1c0,1.9,1.6,3.5,3.5,3.5c2,0,3.5-1.6,3.5-3.5
		v-3.1c0-2.7-1.1-5.3-3-7.2c-1.9-1.9-4.5-3-7.2-3h-5c-1.9,0-3.5,1.6-3.5,3.5C326.8,169.7,328.4,171.3,330.4,171.3z"/>
	<path class="st0" d="M284.1,171.3h18.5c1.9,0,3.5-1.6,3.5-3.5c0-1.9-1.6-3.5-3.5-3.5h-18.5c-1.9,0-3.5,1.6-3.5,3.5
		C280.6,169.7,282.1,171.3,284.1,171.3z"/>
	<path class="st0" d="M237.8,171.3h18.5c1.9,0,3.5-1.6,3.5-3.5c0-1.9-1.6-3.5-3.5-3.5h-18.5c-1.9,0-3.5,1.6-3.5,3.5
		C234.3,169.7,235.8,171.3,237.8,171.3z"/>
	<path class="st0" d="M145.2,171.3h18.5c1.9,0,3.5-1.6,3.5-3.5c0-1.9-1.6-3.5-3.5-3.5h-18.5c-1.9,0-3.5,1.6-3.5,3.5
		C141.7,169.7,143.3,171.3,145.2,171.3z"/>
	<path class="st0" d="M284,357.5h18.5c1.9,0,3.5-1.6,3.5-3.5c0-2-1.6-3.5-3.5-3.5H284c-2,0-3.5,1.6-3.5,3.5
		C280.5,355.9,282.1,357.5,284,357.5z"/>
	<path class="st0" d="M330.3,357.5h5c2.7,0,5.3-1.1,7.2-3c1.9-1.9,3-4.5,3-7.2v-3.1c0-1.9-1.6-3.5-3.5-3.5c-1.9,0-3.5,1.6-3.5,3.5
		v3.1c0,0.8-0.3,1.6-0.9,2.2c-0.6,0.6-1.4,0.9-2.2,0.9h-5c-1.9,0-3.5,1.6-3.5,3.5C326.8,355.9,328.4,357.5,330.3,357.5z"/>
	<path class="st0" d="M341.9,294.4c-1.9,0-3.5,1.6-3.5,3.5v18.5c0,1.9,1.6,3.5,3.5,3.5c2,0,3.5-1.6,3.5-3.5v-18.5
		C345.5,296,343.9,294.4,341.9,294.4z"/>
	<path class="st0" d="M191.5,171.3H210c2,0,3.5-1.6,3.5-3.5c0-1.9-1.6-3.5-3.5-3.5h-18.5c-1.9,0-3.5,1.6-3.5,3.5
		C188,169.7,189.6,171.3,191.5,171.3z"/>
	<path class="st0" d="M191.5,357.5H210c1.9,0,3.5-1.6,3.5-3.5c0-2-1.6-3.5-3.5-3.5h-18.5c-1.9,0-3.5,1.6-3.5,3.5
		C187.9,355.9,189.5,357.5,191.5,357.5z"/>
	<path class="st0" d="M237.8,357.5h18.5c1.9,0,3.5-1.6,3.5-3.5c0-2-1.6-3.5-3.5-3.5h-18.5c-1.9,0-3.5,1.6-3.5,3.5
		C234.2,355.9,235.8,357.5,237.8,357.5z"/>
	<path class="st0" d="M61.7,171.3h9.4c1.9,0,3.5-1.6,3.5-3.5c0-1.9-1.6-3.5-3.5-3.5h-9.4c-1.9,0-3.5,1.6-3.5,3.5
		C58.2,169.7,59.8,171.3,61.7,171.3z"/>
</g>
</svg>
