<?xml version="1.0" encoding="utf-8"?>
<!-- Generator: Adobe Illustrator 22.0.1, SVG Export Plug-In . SVG Version: 6.00 Build 0)  -->
<svg version="1.1" id="Layer_1" xmlns="http://www.w3.org/2000/svg" xmlns:xlink="http://www.w3.org/1999/xlink" x="0px" y="0px"
	 viewBox="0 0 400 400" style="enable-background:new 0 0 400 400;" xml:space="preserve">
<style type="text/css">
	.st0{fill:#004F39;}
</style>
<path class="st0" d="M389.8,178c-0.8-6.1-3.9-11.5-8.8-15.3l-46.3-35.6c0.1-0.5,0.3-1,0.3-1.5V35c0-3.3-2.7-6-6-6h-58.7
	c-3.3,0-6,2.7-6,6v38l-49.1-37.7c-8-6.2-19.9-6.2-28-0.1L19.1,162.6C9,170.3,7,184.8,14.7,194.9c4.4,5.8,11.1,9.1,18.4,9.1
	c5.1,0,9.9-1.6,13.9-4.7l9.2-6.9V365c0,3.3,2.7,6,6,6h275.6c3.3,0,6-2.7,6-6V192.3l9,6.9c4.1,3.1,8.9,4.8,14,4.8
	c7.2,0,13.9-3.3,18.3-9C389,190.1,390.6,184.1,389.8,178z M276.3,41.1h46.6v77l-46.6-35.8V41.1z M331.7,358.9H68.3V183.3L201,82.6
	l130.7,100.4V358.9z M375.6,187.7c-3.6,4.7-10.7,5.6-15.4,2L204.8,70.3c-2.2-1.7-5.2-1.7-7.3,0L39.7,189.7
	c-4.7,3.6-11.9,2.6-15.4-2.1c-3.7-4.8-2.7-11.8,2.1-15.4L194.5,44.8c1.9-1.5,4.2-2.2,6.6-2.2c2.5,0,4.8,0.8,6.7,2.3l165.8,127.4
	c2.3,1.8,3.8,4.4,4.2,7.3C378.2,182.5,377.4,185.3,375.6,187.7z"/>
<g>
	<path class="st0" d="M200,138.9c-56.2,0-101.9,45.7-101.9,101.9c0,56.2,45.7,101.9,101.9,101.9S301.9,297,301.9,240.8
		C301.9,184.6,256.2,138.9,200,138.9z M200,330.7c-49.5,0-89.8-40.3-89.8-89.8c0-49.5,40.3-89.8,89.8-89.8
		c49.5,0,89.8,40.3,89.8,89.8C289.8,290.4,249.5,330.7,200,330.7z"/>
</g>
<path class="st0" d="M171.5,272.3c0-2.4-2-4.4-4.4-4.4c-2.4,0-4.4,2-4.4,4.4c0,17.9,15.3,32.7,34.9,34.9v13.1c0,2.4,2,4.4,4.4,4.4
	s4.4-2,4.4-4.4v-13.1c19.6-1.9,34.9-16.7,34.9-34.9s-15.3-32.7-34.9-34.9V185c14.8,2.1,26.2,13.1,26.2,26.2c0,2.4,2,4.4,4.4,4.4
	c2.4,0,4.4-2,4.4-4.4c0-17.9-15.3-32.7-34.9-34.9v-13.1c0-2.4-2-4.4-4.4-4.4s-4.4,2-4.4,4.4v13.1c-19.6,1.9-34.9,16.7-34.9,34.9
	s15.3,32.7,34.9,34.9v52.3C182.9,296.3,171.5,285.4,171.5,272.3z M232.6,272.3c0,13.1-11.4,24-26.2,25.9v-51.7
	C221.2,248.2,232.6,259.2,232.6,272.3z M171.5,211.2c0-13.1,11.4-24,26.2-25.9v51.7C182.9,235.2,171.5,224.3,171.5,211.2z"/>
</svg>
