<?xml version="1.0" encoding="utf-8"?>
<!-- Generator: Adobe Illustrator 22.0.1, SVG Export Plug-In . SVG Version: 6.00 Build 0)  -->
<svg version="1.1" id="Layer_1" xmlns="http://www.w3.org/2000/svg" xmlns:xlink="http://www.w3.org/1999/xlink" x="0px" y="0px"
	 viewBox="0 0 400 400" style="enable-background:new 0 0 400 400;" xml:space="preserve">
<style type="text/css">
	.st0{fill:#004F39;stroke:#004F39;stroke-width:0.25;stroke-linecap:round;stroke-linejoin:round;stroke-miterlimit:10;}
	.st1{fill:#004F39;}
</style>
<g>
	<path class="st0" d="M385.9,301.6H14.1c-2.3,0-4.1-1.8-4.1-4.1v-195c0-2.3,1.8-4.1,4.1-4.1h371.8c2.3,0,4.1,1.8,4.1,4.1v195
		C390,299.8,388.2,301.6,385.9,301.6z M21.9,293.8h356.2c2.3,0,4.1-1.8,4.1-4.1V110.3c0-2.3-1.8-4.1-4.1-4.1H21.9
		c-2.3,0-4.1,1.8-4.1,4.1v179.4C17.8,291.9,19.6,293.8,21.9,293.8z"/>
	<path class="st1" d="M247.2,259.7c-5.8,0-8.1-6.1-10.2-12.5c-9.7,8.9-20.6,6-21.1,5.9c-3.1-0.9-4.9-4.1-4.1-7.2
		c0.9-3.1,4.1-1,7.1-0.2c0.9,0.2,8,1.5,13.7-7.6c1.5-2.5,4-3.7,6.7-3.4c3.7,0.5,5.5,3.4,7.1,7.5c9.5-27.7,11.6-28.7,13.8-29.7
		c2.2-1,4.6-0.9,6.6,0.4c4.3,2.8,4.1,8.9,3.6,20.9c-0.1,1.6-0.1,3.7-0.2,5.7c1.2-1.4,2.3-2.8,3.2-3.9c5-6.3,6.9-8.6,9-9.6
		c5.8-2.8,10.7,1.6,15,5.5c3.9,3.6,8.4,7.6,13.3,7.7c1.6,0,3.6-0.4,5.9-0.8c7.2-1.3,17.3-3.2,32.3,2.9c1.3,0.5,1.9,2,1.4,3.2
		c-1.2,2.8-4.5,4.2-7.4,3.1c-10.9-4.1-17.9-2.8-24.1-1.6c-2.8,0.5-5.5,1-8.2,1c-9.3-0.1-16.1-6.2-21-10.7c-0.9-0.8-1.9-1.7-2.8-2.5
		c-1.2,1.4-2.9,3.5-4.2,5.2c-9.1,11.4-12.4,15-17,14.7c-2.1-0.1-4-1.3-5.1-3.2c-1.4-2.4,2-21.5,2-26.5c-1.6,4.5-7.4,24.9-9,30.3
		c-0.3,0.9-0.8,1.6-1.5,2.2C250.1,257.7,247.3,259.7,247.2,259.7z"/>
</g>
<path class="st1" d="M100.9,139.7H54c-2.2,0-3.9-1.7-3.9-3.9s1.7-3.9,3.9-3.9h46.9c2.2,0,3.9,1.7,3.9,3.9S103.1,139.7,100.9,139.7z"
	/>
<path class="st1" d="M351,139.7h-46.9c-2.2,0-3.9-1.7-3.9-3.9s1.7-3.9,3.9-3.9H351c2.2,0,3.9,1.7,3.9,3.9S353.1,139.7,351,139.7z"/>
<path class="st1" d="M354.9,194.4H54c-2.2,0-3.9-1.7-3.9-3.9c0-2.2,1.7-3.9,3.9-3.9h300.9c2.2,0,3.9,1.7,3.9,3.9
	C358.8,192.6,357,194.4,354.9,194.4z"/>
<path class="st1" d="M198.6,225.6H54c-2.2,0-3.9-1.7-3.9-3.9c0-2.2,1.7-3.9,3.9-3.9h144.6c2.2,0,3.9,1.7,3.9,3.9
	C202.5,223.9,200.7,225.6,198.6,225.6z"/>
<path class="st1" d="M171.2,268.6H54c-2.2,0-3.9-1.7-3.9-3.9s1.7-3.9,3.9-3.9h117.2c2.2,0,3.9,1.7,3.9,3.9S173.4,268.6,171.2,268.6z
	"/>
</svg>
