<svg version="1.2" xmlns="http://www.w3.org/2000/svg" xmlns:xlink="http://www.w3.org/1999/xlink" overflow="visible" preserveAspectRatio="none" viewBox="0 0 100 100" id="Layer_1_1589482186777" width="23" height="23"><g transform="translate(0, 0)"><defs><style>.cls-1_1589482186777{fill:#fff;}.cls-2_1589482186777{fill:#434343;}</style></defs><path d="M11.2339,74.8809A7.8466,7.8466,0,0,1,3.396,67.043V31.957a7.8469,7.8469,0,0,1,7.8379-7.8379H64.9678a7.8466,7.8466,0,0,1,7.8379,7.8379v9.8477L93.623,29.7861a1.795,1.795,0,0,1,.9082-.249,1.8339,1.8339,0,0,1,1.83,1.83V67.6333a1.7761,1.7761,0,0,1-.5527,1.311,1.868,1.868,0,0,1-1.2774.5186h0a1.8,1.8,0,0,1-.9082-.249L72.8057,57.1953V67.043a7.8463,7.8463,0,0,1-7.8379,7.8379Z" class="cls-1_1589482186777" style="stroke: rgb(67, 67, 67); stroke-width: 0px;" vector-effect="non-scaling-stroke"/><path d="M64.9681,25.2379a6.7266,6.7266,0,0,1,6.719,6.719V43.743l3.3569-1.9381,19.1388-11.05a.6841.6841,0,0,1,.3488-.0991.715.715,0,0,1,.711.7109V67.6331a.715.715,0,0,1-.711.7109.6841.6841,0,0,1-.3488-.0991L75.044,57.1951,71.6871,55.257V67.0431a6.7266,6.7266,0,0,1-6.719,6.719H11.2337a6.7265,6.7265,0,0,1-6.7189-6.719V31.9569a6.7265,6.7265,0,0,1,6.7189-6.719H64.9681m0-2.2379H11.2337a8.9832,8.9832,0,0,0-8.9569,8.9569V67.0431A8.9832,8.9832,0,0,0,11.2337,76H64.9681a8.9832,8.9832,0,0,0,8.9569-8.9569v-7.91l19.1389,11.05a2.9385,2.9385,0,0,0,4.4167-2.55V31.3669a2.9385,2.9385,0,0,0-4.4167-2.55L73.925,39.8668v-7.91A8.9832,8.9832,0,0,0,64.9681,23Z" class="cls-2_1589482186777" style="stroke: rgb(67, 67, 67); stroke-width: 0px;" vector-effect="non-scaling-stroke"/></g></svg>